<?xml version="1.0" encoding="UTF-8"?>
<svg id="Layer_1" data-name="Layer 1" xmlns="http://www.w3.org/2000/svg" viewBox="0 0 19 19">
  <defs>
    <style>
      .cls-1 {
        fill: #59aa59;
      }

      .cls-1, .cls-2 {
        stroke-width: 0px;
      }

      .cls-2 {
        fill: #63db65;
      }
    </style>
  </defs>
  <circle class="cls-2" cx="9.5" cy="9.5" r="9.5"/>
  <path class="cls-1" d="M8.08,11.65l-2.32-2.32c-.14-.14-.31-.21-.52-.21-.21,0-.39.07-.53.21-.14.14-.22.32-.22.53s.07.38.22.53l2.74,2.74c.18.18.39.27.63.27s.45-.09.63-.27l5.56-5.56c.14-.14.21-.31.21-.52,0-.21-.07-.39-.21-.53-.14-.14-.32-.22-.53-.22s-.38.07-.53.22c0,0-5.14,5.14-5.14,5.14ZM9.5,19c-1.31,0-2.55-.25-3.71-.75-1.16-.5-2.16-1.18-3.02-2.03-.86-.85-1.53-1.86-2.03-3.02-.5-1.16-.75-2.39-.75-3.7s.25-2.55.75-3.71c.5-1.16,1.18-2.16,2.03-3.02s1.86-1.53,3.02-2.03c1.16-.5,2.39-.75,3.7-.75s2.55.25,3.71.75,2.16,1.18,3.02,2.03,1.53,1.86,2.03,3.02c.5,1.16.75,2.39.75,3.7s-.25,2.55-.75,3.71c-.5,1.16-1.18,2.16-2.03,3.02-.85.86-1.86,1.53-3.02,2.03-1.16.5-2.39.75-3.7.75ZM9.5,17.5c2.23,0,4.13-.78,5.68-2.33s2.33-3.44,2.33-5.68-.78-4.13-2.33-5.68-3.44-2.33-5.68-2.33-4.13.78-5.68,2.33-2.33,3.44-2.33,5.68.78,4.13,2.33,5.68,3.44,2.33,5.68,2.33Z"/>
</svg>